<?xml version="1.0" encoding="UTF-8" standalone="no"?>
<!-- Created with Inkscape (http://www.inkscape.org/) -->

<svg
   version="1.1"
   id="svg1"
   width="638"
   height="621.99103"
   viewBox="0 0 638 621.99103"
   sodipodi:docname="azs.svg"
   inkscape:version="1.3.2 (091e20ef0f, 2023-11-25)"
   xmlns:inkscape="http://www.inkscape.org/namespaces/inkscape"
   xmlns:sodipodi="http://sodipodi.sourceforge.net/DTD/sodipodi-0.dtd"
   xmlns="http://www.w3.org/2000/svg"
   xmlns:svg="http://www.w3.org/2000/svg">
  <defs
     id="defs1" />
  <sodipodi:namedview
     id="namedview1"
     pagecolor="#ffffff"
     bordercolor="#000000"
     borderopacity="0.25"
     inkscape:showpageshadow="2"
     inkscape:pageopacity="0.0"
     inkscape:pagecheckerboard="0"
     inkscape:deskcolor="#d1d1d1"
     inkscape:zoom="0.90683845"
     inkscape:cx="319.24098"
     inkscape:cy="503.39727"
     inkscape:window-width="1920"
     inkscape:window-height="1163"
     inkscape:window-x="0"
     inkscape:window-y="0"
     inkscape:window-maximized="1"
     inkscape:current-layer="g1" />
  <g
     inkscape:groupmode="layer"
     inkscape:label="Image"
     id="g1"
     transform="translate(-1,-1)">
    <path
       style="fill:#000000"
       d="m 509.45,622.12809 c -0.5225,-0.47955 -11.525,-5.841 -24.45,-11.91434 -33.52151,-15.75144 -39.14157,-18.41222 -113.5,-53.73581 -17.05,-8.09951 -45.625,-21.60092 -63.5,-30.00312 -17.875,-8.4022 -49.77961,-23.4213 -70.89913,-33.37578 C 215.98135,483.14457 198.3803,475 197.98744,475 c -0.39287,0 -1.90368,2.65027 -3.35736,5.88948 -1.45367,3.23922 -12.00838,24.95172 -23.4549,48.25 -11.44652,23.29829 -26.3693,53.72302 -33.16172,67.61052 L 125.66359,622 H 63.331795 C 29.049308,622 1,621.82214 1,621.60474 1,621.11654 45.769457,530.69989 102.65592,416.29989 l 42.86381,-86.20012 11.49013,5.78486 c 140.62256,70.79825 283.33084,142.10801 283.68471,141.75413 0.25221,-0.25221 -14.20089,-28.22174 -32.118,-62.15452 C 390.65946,381.55146 376,353.36894 376,352.85641 c 0,-1.08909 56.80063,-113.95882 57.96335,-115.1802 0.72445,-0.761 4.77151,6.49058 27.66679,49.57379 4.60342,8.6625 12.14375,22.8375 16.75629,31.5 24.30699,45.64935 51.75264,97.30844 71.59054,134.75 12.23922,23.1 25.96779,48.975 30.50794,57.5 C 624.12027,592.93373 639,621.18476 639,622.09822 c 0,1.17042 -128.27507,1.2 -129.55,0.0299 z M 242.52974,265.06401 c -26.93364,-13.68706 -49.1018,-25.28019 -49.26257,-25.7625 -0.16077,-0.48231 13.48675,-28.98496 30.32782,-63.33922 C 240.43605,141.60803 256.81715,108.1 259.99741,101.5 263.17767,94.9 275.09576,70.6 286.48205,47.5 297.86833,24.4 307.58176,4.4875 308.06744,3.25 308.55312,2.0125 309.30422,1 309.73655,1 c 0.69506,0 12.01563,21.18302 36.3184,67.958885 19.82882,38.164785 24.37574,46.843445 26.55737,50.689685 l 2.35311,4.14858 -22.34924,45.35142 c -34.55671,70.12302 -59.72955,120.32871 -60.45622,120.57622 -0.36298,0.12363 -22.69659,-10.97372 -49.63023,-24.66078 z"
       id="path1"
       sodipodi:nodetypes="ssssssssscssscssssssssssssssssssssscsss" />
  </g>
</svg>
